{
	"patcher" : 	{
		"fileversion" : 1,
		"appversion" : 		{
			"major" : 7,
			"minor" : 3,
			"revision" : 5,
			"architecture" : "x64",
			"modernui" : 1
		}
,
		"rect" : [ 59.0, 51.0, 836.0, 886.0 ],
		"bgcolor" : [ 0.1, 0.1, 0.1, 1.0 ],
		"editing_bgcolor" : [ 0.1, 0.1, 0.1, 1.0 ],
		"bglocked" : 0,
		"openinpresentation" : 0,
		"default_fontsize" : 12.0,
		"default_fontface" : 0,
		"default_fontname" : "Arial",
		"gridonopen" : 1,
		"gridsize" : [ 15.0, 15.0 ],
		"gridsnaponopen" : 2,
		"objectsnaponopen" : 0,
		"statusbarvisible" : 2,
		"toolbarvisible" : 1,
		"lefttoolbarpinned" : 0,
		"toptoolbarpinned" : 0,
		"righttoolbarpinned" : 0,
		"bottomtoolbarpinned" : 0,
		"toolbars_unpinned_last_save" : 15,
		"tallnewobj" : 0,
		"boxanimatetime" : 200,
		"enablehscroll" : 1,
		"enablevscroll" : 1,
		"devicewidth" : 0.0,
		"description" : "",
		"digest" : "",
		"tags" : "",
		"style" : "patcher",
		"subpatcher_template" : "myTemplate",
		"boxes" : [ 			{
				"box" : 				{
					"id" : "obj-85",
					"maxclass" : "comment",
					"numinlets" : 1,
					"numoutlets" : 0,
					"patching_rect" : [ 555.0, 420.0, 45.0, 20.0 ],
					"style" : "",
					"text" : "8-26"
				}

			}
, 			{
				"box" : 				{
					"id" : "obj-86",
					"maxclass" : "comment",
					"numinlets" : 1,
					"numoutlets" : 0,
					"patching_rect" : [ 555.0, 390.0, 45.0, 20.0 ],
					"style" : "",
					"text" : "7-20"
				}

			}
, 			{
				"box" : 				{
					"id" : "obj-87",
					"maxclass" : "comment",
					"numinlets" : 1,
					"numoutlets" : 0,
					"patching_rect" : [ 555.0, 360.0, 45.0, 20.0 ],
					"style" : "",
					"text" : "7-Z18"
				}

			}
, 			{
				"box" : 				{
					"id" : "obj-84",
					"maxclass" : "comment",
					"numinlets" : 1,
					"numoutlets" : 0,
					"patching_rect" : [ 330.0, 420.0, 45.0, 20.0 ],
					"style" : "",
					"text" : "6-31"
				}

			}
, 			{
				"box" : 				{
					"id" : "obj-83",
					"maxclass" : "comment",
					"numinlets" : 1,
					"numoutlets" : 0,
					"patching_rect" : [ 330.0, 390.0, 45.0, 20.0 ],
					"style" : "",
					"text" : "6-Z29"
				}

			}
, 			{
				"box" : 				{
					"id" : "obj-70",
					"maxclass" : "comment",
					"numinlets" : 1,
					"numoutlets" : 0,
					"patching_rect" : [ 330.0, 360.0, 45.0, 20.0 ],
					"style" : "",
					"text" : "5-20"
				}

			}
, 			{
				"box" : 				{
					"id" : "obj-54",
					"maxclass" : "comment",
					"numinlets" : 1,
					"numoutlets" : 0,
					"patching_rect" : [ 720.0, 330.0, 45.0, 20.0 ],
					"style" : "",
					"text" : "Rahn"
				}

			}
, 			{
				"box" : 				{
					"id" : "obj-55",
					"maxclass" : "comment",
					"numinlets" : 1,
					"numoutlets" : 0,
					"patching_rect" : [ 615.0, 330.0, 45.0, 20.0 ],
					"style" : "",
					"text" : "Forte"
				}

			}
, 			{
				"box" : 				{
					"id" : "obj-42",
					"maxclass" : "message",
					"numinlets" : 2,
					"numoutlets" : 1,
					"outlettype" : [ "" ],
					"patching_rect" : [ 720.0, 420.0, 94.0, 22.0 ],
					"style" : "",
					"text" : "0 1 3 4 5 7 8 10"
				}

			}
, 			{
				"box" : 				{
					"id" : "obj-44",
					"maxclass" : "message",
					"numinlets" : 2,
					"numoutlets" : 1,
					"outlettype" : [ "" ],
					"patching_rect" : [ 720.0, 390.0, 77.0, 22.0 ],
					"style" : "",
					"text" : "0 1 2 5 6 7 9"
				}

			}
, 			{
				"box" : 				{
					"id" : "obj-45",
					"maxclass" : "message",
					"numinlets" : 2,
					"numoutlets" : 1,
					"outlettype" : [ "" ],
					"patching_rect" : [ 720.0, 360.0, 77.0, 22.0 ],
					"style" : "",
					"text" : "0 1 4 5 6 7 9"
				}

			}
, 			{
				"box" : 				{
					"id" : "obj-47",
					"maxclass" : "message",
					"numinlets" : 2,
					"numoutlets" : 1,
					"outlettype" : [ "" ],
					"patching_rect" : [ 465.0, 420.0, 67.0, 22.0 ],
					"style" : "",
					"text" : "0 1 4 5 7 9"
				}

			}
, 			{
				"box" : 				{
					"id" : "obj-52",
					"maxclass" : "message",
					"numinlets" : 2,
					"numoutlets" : 1,
					"outlettype" : [ "" ],
					"patching_rect" : [ 465.0, 390.0, 67.0, 22.0 ],
					"style" : "",
					"text" : "0 2 3 6 7 9"
				}

			}
, 			{
				"box" : 				{
					"id" : "obj-53",
					"maxclass" : "message",
					"numinlets" : 2,
					"numoutlets" : 1,
					"outlettype" : [ "" ],
					"patching_rect" : [ 465.0, 360.0, 57.0, 22.0 ],
					"style" : "",
					"text" : "0 1 5 6 8"
				}

			}
, 			{
				"box" : 				{
					"id" : "obj-41",
					"maxclass" : "comment",
					"numinlets" : 1,
					"numoutlets" : 0,
					"patching_rect" : [ 465.0, 330.0, 45.0, 20.0 ],
					"style" : "",
					"text" : "Rahn"
				}

			}
, 			{
				"box" : 				{
					"id" : "obj-39",
					"maxclass" : "comment",
					"numinlets" : 1,
					"numoutlets" : 0,
					"patching_rect" : [ 390.0, 330.0, 45.0, 20.0 ],
					"style" : "",
					"text" : "Forte"
				}

			}
, 			{
				"box" : 				{
					"id" : "obj-24",
					"maxclass" : "message",
					"numinlets" : 2,
					"numoutlets" : 1,
					"outlettype" : [ "" ],
					"patching_rect" : [ 165.0, 420.0, 87.0, 22.0 ],
					"style" : "",
					"text" : "prime_type $1"
				}

			}
, 			{
				"box" : 				{
					"id" : "obj-23",
					"items" : [ "Rahn", ",", "Forte" ],
					"maxclass" : "umenu",
					"numinlets" : 1,
					"numoutlets" : 3,
					"outlettype" : [ "int", "", "" ],
					"parameter_enable" : 0,
					"patching_rect" : [ 165.0, 390.0, 90.0, 22.0 ],
					"style" : ""
				}

			}
, 			{
				"box" : 				{
					"id" : "obj-20",
					"linecount" : 2,
					"maxclass" : "comment",
					"numinlets" : 1,
					"numoutlets" : 0,
					"patching_rect" : [ 165.0, 345.0, 135.0, 34.0 ],
					"style" : "",
					"text" : "choose between Forte or Rahn prime forms"
				}

			}
, 			{
				"box" : 				{
					"id" : "obj-36",
					"maxclass" : "message",
					"numinlets" : 2,
					"numoutlets" : 1,
					"outlettype" : [ "" ],
					"patching_rect" : [ 615.0, 420.0, 94.0, 22.0 ],
					"style" : "",
					"text" : "0 1 2 4 5 7 9 10"
				}

			}
, 			{
				"box" : 				{
					"id" : "obj-34",
					"maxclass" : "message",
					"numinlets" : 2,
					"numoutlets" : 1,
					"outlettype" : [ "" ],
					"patching_rect" : [ 615.0, 390.0, 77.0, 22.0 ],
					"style" : "",
					"text" : "0 1 2 4 7 8 9"
				}

			}
, 			{
				"box" : 				{
					"id" : "obj-28",
					"maxclass" : "message",
					"numinlets" : 2,
					"numoutlets" : 1,
					"outlettype" : [ "" ],
					"patching_rect" : [ 615.0, 360.0, 77.0, 22.0 ],
					"style" : "",
					"text" : "0 1 2 3 5 8 9"
				}

			}
, 			{
				"box" : 				{
					"id" : "obj-5",
					"maxclass" : "message",
					"numinlets" : 2,
					"numoutlets" : 1,
					"outlettype" : [ "" ],
					"patching_rect" : [ 390.0, 420.0, 67.0, 22.0 ],
					"style" : "",
					"text" : "0 1 3 5 8 9"
				}

			}
, 			{
				"box" : 				{
					"id" : "obj-7",
					"maxclass" : "message",
					"numinlets" : 2,
					"numoutlets" : 1,
					"outlettype" : [ "" ],
					"patching_rect" : [ 390.0, 390.0, 67.0, 22.0 ],
					"style" : "",
					"text" : "0 1 3 6 8 9"
				}

			}
, 			{
				"box" : 				{
					"id" : "obj-10",
					"maxclass" : "message",
					"numinlets" : 2,
					"numoutlets" : 1,
					"outlettype" : [ "" ],
					"patching_rect" : [ 390.0, 360.0, 57.0, 22.0 ],
					"style" : "",
					"text" : "0 1 3 7 8"
				}

			}
, 			{
				"box" : 				{
					"fontsize" : 14.0,
					"id" : "obj-2",
					"linecount" : 2,
					"maxclass" : "comment",
					"numinlets" : 1,
					"numoutlets" : 0,
					"patching_rect" : [ 135.0, 15.0, 240.0, 39.0 ],
					"style" : "",
					"text" : "A Max external to perform musical set theory calculations."
				}

			}
, 			{
				"box" : 				{
					"id" : "obj-14",
					"linecount" : 2,
					"maxclass" : "comment",
					"numinlets" : 1,
					"numoutlets" : 0,
					"patching_rect" : [ 45.0, 345.0, 80.0, 34.0 ],
					"style" : "",
					"text" : "warn on invalid input"
				}

			}
, 			{
				"box" : 				{
					"id" : "obj-13",
					"maxclass" : "message",
					"numinlets" : 2,
					"numoutlets" : 1,
					"outlettype" : [ "" ],
					"patching_rect" : [ 45.0, 420.0, 75.0, 22.0 ],
					"style" : "",
					"text" : "verbose $1"
				}

			}
, 			{
				"box" : 				{
					"id" : "obj-11",
					"maxclass" : "toggle",
					"numinlets" : 1,
					"numoutlets" : 1,
					"outlettype" : [ "int" ],
					"parameter_enable" : 0,
					"patching_rect" : [ 45.0, 390.0, 24.0, 24.0 ],
					"style" : ""
				}

			}
, 			{
				"box" : 				{
					"id" : "obj-103",
					"maxclass" : "comment",
					"numinlets" : 1,
					"numoutlets" : 0,
					"patching_rect" : [ 210.0, 270.0, 45.0, 20.0 ],
					"style" : "",
					"text" : "6-Z44"
				}

			}
, 			{
				"box" : 				{
					"id" : "obj-102",
					"maxclass" : "comment",
					"numinlets" : 1,
					"numoutlets" : 0,
					"patching_rect" : [ 15.0, 270.0, 45.0, 20.0 ],
					"style" : "",
					"text" : "6-Z19"
				}

			}
, 			{
				"box" : 				{
					"id" : "obj-101",
					"linecount" : 4,
					"maxclass" : "comment",
					"numinlets" : 1,
					"numoutlets" : 0,
					"patching_rect" : [ 15.0, 195.0, 363.0, 62.0 ],
					"style" : "",
					"text" : "In most cases different prime forms and Forte numbers yield different interval class vectors. The exceptions are 'Z-related' sets, who share the same interval class vectors.\nExample:  '6-Z19' and '6-Z44' both have IVC = 3 1 3 4 3 1"
				}

			}
, 			{
				"box" : 				{
					"id" : "obj-97",
					"maxclass" : "message",
					"numinlets" : 2,
					"numoutlets" : 1,
					"outlettype" : [ "" ],
					"patching_rect" : [ 75.0, 270.0, 105.0, 22.0 ],
					"style" : "",
					"text" : "0 1 3 4 7 8"
				}

			}
, 			{
				"box" : 				{
					"id" : "obj-96",
					"maxclass" : "message",
					"numinlets" : 2,
					"numoutlets" : 1,
					"outlettype" : [ "" ],
					"patching_rect" : [ 270.0, 270.0, 105.0, 22.0 ],
					"style" : "",
					"text" : "0 1 2 5 6 9"
				}

			}
, 			{
				"box" : 				{
					"id" : "obj-94",
					"maxclass" : "comment",
					"numinlets" : 1,
					"numoutlets" : 0,
					"patching_rect" : [ 645.0, 15.0, 165.0, 20.0 ],
					"style" : "",
					"text" : "Alternating pentachords"
				}

			}
, 			{
				"box" : 				{
					"id" : "obj-82",
					"maxclass" : "message",
					"numinlets" : 2,
					"numoutlets" : 1,
					"outlettype" : [ "" ],
					"patching_rect" : [ 645.0, 165.0, 165.0, 22.0 ],
					"style" : "",
					"text" : "2 11 2 1 8 11 10"
				}

			}
, 			{
				"box" : 				{
					"id" : "obj-81",
					"maxclass" : "comment",
					"numinlets" : 1,
					"numoutlets" : 0,
					"patching_rect" : [ 525.0, 165.0, 105.0, 20.0 ],
					"style" : "",
					"text" : "transposed again"
				}

			}
, 			{
				"box" : 				{
					"id" : "obj-80",
					"maxclass" : "message",
					"numinlets" : 2,
					"numoutlets" : 1,
					"outlettype" : [ "" ],
					"patching_rect" : [ 645.0, 135.0, 165.0, 22.0 ],
					"style" : "",
					"text" : "1 10 1 0 7 10 9"
				}

			}
, 			{
				"box" : 				{
					"id" : "obj-79",
					"maxclass" : "comment",
					"numinlets" : 1,
					"numoutlets" : 0,
					"patching_rect" : [ 525.0, 135.0, 105.0, 20.0 ],
					"style" : "",
					"text" : "inverted"
				}

			}
, 			{
				"box" : 				{
					"id" : "obj-78",
					"linecount" : 3,
					"maxclass" : "comment",
					"numinlets" : 1,
					"numoutlets" : 0,
					"patching_rect" : [ 525.0, 195.0, 285.0, 48.0 ],
					"style" : "",
					"text" : "The prime form, interval class vector, and Forte number are invariant through transposition, cyclical permutation and inversion."
				}

			}
, 			{
				"box" : 				{
					"id" : "obj-77",
					"maxclass" : "message",
					"numinlets" : 2,
					"numoutlets" : 1,
					"outlettype" : [ "" ],
					"patching_rect" : [ 645.0, 105.0, 165.0, 22.0 ],
					"style" : "",
					"text" : "11 2 11 0 5 2 3"
				}

			}
, 			{
				"box" : 				{
					"id" : "obj-76",
					"maxclass" : "comment",
					"numinlets" : 1,
					"numoutlets" : 0,
					"patching_rect" : [ 525.0, 105.0, 105.0, 20.0 ],
					"style" : "",
					"text" : "transposed"
				}

			}
, 			{
				"box" : 				{
					"id" : "obj-75",
					"maxclass" : "comment",
					"numinlets" : 1,
					"numoutlets" : 0,
					"patching_rect" : [ 525.0, 75.0, 105.0, 20.0 ],
					"style" : "",
					"text" : "same pitches"
				}

			}
, 			{
				"box" : 				{
					"id" : "obj-74",
					"maxclass" : "comment",
					"numinlets" : 1,
					"numoutlets" : 0,
					"patching_rect" : [ 525.0, 45.0, 105.0, 20.0 ],
					"style" : "",
					"text" : "longer set"
				}

			}
, 			{
				"box" : 				{
					"id" : "obj-73",
					"maxclass" : "message",
					"numinlets" : 2,
					"numoutlets" : 1,
					"outlettype" : [ "" ],
					"patching_rect" : [ 645.0, 75.0, 165.0, 22.0 ],
					"style" : "",
					"text" : "9 9 7 4 9 9 7 3 6 9"
				}

			}
, 			{
				"box" : 				{
					"id" : "obj-71",
					"maxclass" : "message",
					"numinlets" : 2,
					"numoutlets" : 1,
					"outlettype" : [ "" ],
					"patching_rect" : [ 645.0, 45.0, 165.0, 22.0 ],
					"style" : "",
					"text" : "4 3 4 6 7 7 4 9 3 7 7 4"
				}

			}
, 			{
				"box" : 				{
					"id" : "obj-61",
					"maxclass" : "message",
					"numinlets" : 2,
					"numoutlets" : 1,
					"outlettype" : [ "" ],
					"patching_rect" : [ 450.0, 135.0, 45.0, 22.0 ],
					"style" : "",
					"text" : "1 10"
				}

			}
, 			{
				"box" : 				{
					"id" : "obj-62",
					"maxclass" : "message",
					"numinlets" : 2,
					"numoutlets" : 1,
					"outlettype" : [ "" ],
					"patching_rect" : [ 390.0, 135.0, 45.0, 22.0 ],
					"style" : "",
					"text" : "0 3"
				}

			}
, 			{
				"box" : 				{
					"id" : "obj-63",
					"maxclass" : "message",
					"numinlets" : 2,
					"numoutlets" : 1,
					"outlettype" : [ "" ],
					"patching_rect" : [ 450.0, 105.0, 45.0, 22.0 ],
					"style" : "",
					"text" : "2 10"
				}

			}
, 			{
				"box" : 				{
					"id" : "obj-64",
					"maxclass" : "message",
					"numinlets" : 2,
					"numoutlets" : 1,
					"outlettype" : [ "" ],
					"patching_rect" : [ 390.0, 105.0, 45.0, 22.0 ],
					"style" : "",
					"text" : "0 4"
				}

			}
, 			{
				"box" : 				{
					"id" : "obj-65",
					"maxclass" : "message",
					"numinlets" : 2,
					"numoutlets" : 1,
					"outlettype" : [ "" ],
					"patching_rect" : [ 450.0, 75.0, 45.0, 22.0 ],
					"style" : "",
					"text" : "3 10"
				}

			}
, 			{
				"box" : 				{
					"id" : "obj-66",
					"maxclass" : "comment",
					"numinlets" : 1,
					"numoutlets" : 0,
					"patching_rect" : [ 270.0, 75.0, 105.0, 20.0 ],
					"style" : "",
					"text" : "Perfect fourth"
				}

			}
, 			{
				"box" : 				{
					"id" : "obj-67",
					"maxclass" : "comment",
					"numinlets" : 1,
					"numoutlets" : 0,
					"patching_rect" : [ 270.0, 105.0, 105.0, 20.0 ],
					"style" : "",
					"text" : "Major third"
				}

			}
, 			{
				"box" : 				{
					"id" : "obj-68",
					"maxclass" : "comment",
					"numinlets" : 1,
					"numoutlets" : 0,
					"patching_rect" : [ 270.0, 135.0, 105.0, 20.0 ],
					"style" : "",
					"text" : "Minor third"
				}

			}
, 			{
				"box" : 				{
					"id" : "obj-69",
					"maxclass" : "message",
					"numinlets" : 2,
					"numoutlets" : 1,
					"outlettype" : [ "" ],
					"patching_rect" : [ 390.0, 75.0, 45.0, 22.0 ],
					"style" : "",
					"text" : "0 5"
				}

			}
, 			{
				"box" : 				{
					"id" : "obj-59",
					"maxclass" : "message",
					"numinlets" : 2,
					"numoutlets" : 1,
					"outlettype" : [ "" ],
					"patching_rect" : [ 195.0, 135.0, 45.0, 22.0 ],
					"style" : "",
					"text" : "6 9 0"
				}

			}
, 			{
				"box" : 				{
					"id" : "obj-60",
					"maxclass" : "message",
					"numinlets" : 2,
					"numoutlets" : 1,
					"outlettype" : [ "" ],
					"patching_rect" : [ 135.0, 135.0, 45.0, 22.0 ],
					"style" : "",
					"text" : "0 3 6"
				}

			}
, 			{
				"box" : 				{
					"id" : "obj-56",
					"maxclass" : "message",
					"numinlets" : 2,
					"numoutlets" : 1,
					"outlettype" : [ "" ],
					"patching_rect" : [ 195.0, 105.0, 45.0, 22.0 ],
					"style" : "",
					"text" : "6 9 1"
				}

			}
, 			{
				"box" : 				{
					"id" : "obj-57",
					"maxclass" : "message",
					"numinlets" : 2,
					"numoutlets" : 1,
					"outlettype" : [ "" ],
					"patching_rect" : [ 135.0, 105.0, 45.0, 22.0 ],
					"style" : "",
					"text" : "0 3 7"
				}

			}
, 			{
				"box" : 				{
					"id" : "obj-51",
					"maxclass" : "message",
					"numinlets" : 2,
					"numoutlets" : 1,
					"outlettype" : [ "" ],
					"patching_rect" : [ 195.0, 75.0, 45.0, 22.0 ],
					"style" : "",
					"text" : "6 10 1"
				}

			}
, 			{
				"box" : 				{
					"id" : "obj-50",
					"maxclass" : "comment",
					"numinlets" : 1,
					"numoutlets" : 0,
					"patching_rect" : [ 15.0, 135.0, 105.0, 20.0 ],
					"style" : "",
					"text" : "Diminished chord"
				}

			}
, 			{
				"box" : 				{
					"id" : "obj-49",
					"maxclass" : "comment",
					"numinlets" : 1,
					"numoutlets" : 0,
					"patching_rect" : [ 15.0, 105.0, 105.0, 20.0 ],
					"style" : "",
					"text" : "Minor chord"
				}

			}
, 			{
				"box" : 				{
					"id" : "obj-48",
					"maxclass" : "comment",
					"numinlets" : 1,
					"numoutlets" : 0,
					"patching_rect" : [ 15.0, 75.0, 105.0, 20.0 ],
					"style" : "",
					"text" : "Major chord"
				}

			}
, 			{
				"box" : 				{
					"id" : "obj-46",
					"maxclass" : "message",
					"numinlets" : 2,
					"numoutlets" : 1,
					"outlettype" : [ "" ],
					"patching_rect" : [ 135.0, 75.0, 45.0, 22.0 ],
					"style" : "",
					"text" : "0 4 7"
				}

			}
, 			{
				"box" : 				{
					"id" : "obj-43",
					"maxclass" : "message",
					"numinlets" : 2,
					"numoutlets" : 1,
					"outlettype" : [ "" ],
					"patching_rect" : [ 690.0, 510.0, 120.0, 22.0 ],
					"style" : "",
					"text" : "2 4 5 6 9 10 11"
				}

			}
, 			{
				"box" : 				{
					"id" : "obj-37",
					"maxclass" : "message",
					"numinlets" : 2,
					"numoutlets" : 1,
					"outlettype" : [ "" ],
					"patching_rect" : [ 555.0, 510.0, 120.0, 22.0 ],
					"style" : "",
					"text" : "0 1 3 7 8"
				}

			}
, 			{
				"box" : 				{
					"id" : "obj-35",
					"maxclass" : "message",
					"numinlets" : 2,
					"numoutlets" : 1,
					"outlettype" : [ "" ],
					"patching_rect" : [ 420.0, 510.0, 120.0, 22.0 ],
					"style" : "",
					"text" : "7 8 0 1 3"
				}

			}
, 			{
				"box" : 				{
					"id" : "obj-33",
					"maxclass" : "message",
					"numinlets" : 2,
					"numoutlets" : 1,
					"outlettype" : [ "" ],
					"patching_rect" : [ 285.0, 510.0, 120.0, 22.0 ],
					"style" : "",
					"text" : "0 1 5 6 8"
				}

			}
, 			{
				"box" : 				{
					"id" : "obj-31",
					"maxclass" : "message",
					"numinlets" : 2,
					"numoutlets" : 1,
					"outlettype" : [ "" ],
					"patching_rect" : [ 150.0, 510.0, 120.0, 22.0 ],
					"style" : "",
					"text" : "2 1 1 2 3 1"
				}

			}
, 			{
				"box" : 				{
					"id" : "obj-27",
					"maxclass" : "comment",
					"numinlets" : 1,
					"numoutlets" : 0,
					"patching_rect" : [ 690.0, 540.0, 120.0, 20.0 ],
					"style" : "",
					"text" : "Complementary set"
				}

			}
, 			{
				"box" : 				{
					"id" : "obj-25",
					"linecount" : 2,
					"maxclass" : "comment",
					"numinlets" : 1,
					"numoutlets" : 0,
					"patching_rect" : [ 555.0, 540.0, 120.0, 34.0 ],
					"style" : "",
					"text" : "Sorted input set,\nduplicates removed"
				}

			}
, 			{
				"box" : 				{
					"id" : "obj-22",
					"maxclass" : "comment",
					"numinlets" : 1,
					"numoutlets" : 0,
					"patching_rect" : [ 420.0, 540.0, 120.0, 20.0 ],
					"style" : "",
					"text" : "Normal form"
				}

			}
, 			{
				"box" : 				{
					"id" : "obj-21",
					"maxclass" : "comment",
					"numinlets" : 1,
					"numoutlets" : 0,
					"patching_rect" : [ 285.0, 540.0, 120.0, 20.0 ],
					"style" : "",
					"text" : "Prime form"
				}

			}
, 			{
				"box" : 				{
					"id" : "obj-9",
					"maxclass" : "comment",
					"numinlets" : 1,
					"numoutlets" : 0,
					"patching_rect" : [ 150.0, 540.0, 120.0, 20.0 ],
					"style" : "",
					"text" : "Interval class vector"
				}

			}
, 			{
				"box" : 				{
					"id" : "obj-1",
					"maxclass" : "comment",
					"numinlets" : 1,
					"numoutlets" : 0,
					"patching_rect" : [ 15.0, 540.0, 120.0, 20.0 ],
					"style" : "",
					"text" : "Forte number"
				}

			}
, 			{
				"box" : 				{
					"id" : "obj-17",
					"linecount" : 20,
					"maxclass" : "comment",
					"numinlets" : 0,
					"numoutlets" : 0,
					"patching_rect" : [ 15.0, 585.0, 390.0, 282.0 ],
					"style" : "",
					"suppressinlet" : 1,
					"text" : "\nInlet:\n  0:  A list of pitch values: integers from 0 to 11.\n\nOutlets:\n  0:  The Forte number for the set.\n  1:  The interval class vector.\n  2:  The prime form for the set (same length as sorted set)\n  3:  The normal form for the set (same length as sorted set).\n  4:  The input set, sorted and with duplicates removed.\n  5:  Complementary set (length is 12 minus the sorted set length).\n\nArguments:  none\n\nAttributes:\n  -  prime_type:  choose between Forte or Rahn prime forms.\n  -  verbose:  report warnings on invalid input or not.\n\nMessages:  integers or lists\n "
				}

			}
, 			{
				"box" : 				{
					"id" : "obj-6",
					"linecount" : 20,
					"maxclass" : "comment",
					"numinlets" : 0,
					"numoutlets" : 0,
					"patching_rect" : [ 420.0, 585.0, 390.0, 282.0 ],
					"style" : "",
					"suppressinlet" : 1,
					"text" : "\nAuthor: Yves Candau\nExtends the similar object by Matthew McCabe, with 32 bits and 64 bits version available for Windows and Mac.\n\nNotes:\n  -  Invalid input values are simply dropped with an optional warning.\n\nLinks:\n  -  http://www.jaytomlin.com/music/settheory/help.html\n\nSource:\n  -  https://github.com/ycandau/setcalc\n\nChanges from the original setcalc:\n  -  choose between Forte or Rahn prime forms.\n  -  process sets of any length (not just 3 to 9).\n  -  32-bit and 64-bit support\n  -  Optional warnings on invalid inputs.\n  "
				}

			}
, 			{
				"box" : 				{
					"fontsize" : 20.0,
					"id" : "obj-19",
					"maxclass" : "comment",
					"numinlets" : 1,
					"numoutlets" : 0,
					"patching_rect" : [ 15.0, 15.0, 105.0, 29.0 ],
					"style" : "",
					"text" : "y.setcalc"
				}

			}
, 			{
				"box" : 				{
					"id" : "obj-8",
					"maxclass" : "message",
					"numinlets" : 2,
					"numoutlets" : 1,
					"outlettype" : [ "" ],
					"patching_rect" : [ 15.0, 510.0, 120.0, 22.0 ],
					"style" : "",
					"text" : "5-20"
				}

			}
, 			{
				"box" : 				{
					"id" : "obj-4",
					"maxclass" : "newobj",
					"numinlets" : 1,
					"numoutlets" : 6,
					"outlettype" : [ "", "list", "list", "list", "list", "list" ],
					"patching_rect" : [ 15.0, 465.0, 795.0, 22.0 ],
					"saved_object_attributes" : 					{
						"prime_type" : "rahn",
						"verbose" : 1
					}
,
					"style" : "",
					"text" : "y.setcalc"
				}

			}
 ],
		"lines" : [ 			{
				"patchline" : 				{
					"destination" : [ "obj-4", 0 ],
					"midpoints" : [ 399.5, 386.5, 383.25, 386.5, 383.25, 452.666667, 24.5, 452.666667 ],
					"source" : [ "obj-10", 0 ]
				}

			}
, 			{
				"patchline" : 				{
					"destination" : [ "obj-13", 0 ],
					"source" : [ "obj-11", 0 ]
				}

			}
, 			{
				"patchline" : 				{
					"destination" : [ "obj-4", 0 ],
					"midpoints" : [ 54.5, 452.0, 24.5, 452.0 ],
					"source" : [ "obj-13", 0 ]
				}

			}
, 			{
				"patchline" : 				{
					"destination" : [ "obj-24", 0 ],
					"source" : [ "obj-23", 1 ]
				}

			}
, 			{
				"patchline" : 				{
					"destination" : [ "obj-4", 0 ],
					"midpoints" : [ 174.5, 452.75, 24.5, 452.75 ],
					"source" : [ "obj-24", 0 ]
				}

			}
, 			{
				"patchline" : 				{
					"destination" : [ "obj-4", 0 ],
					"midpoints" : [ 624.5, 386.5, 608.5, 386.5, 608.5, 452.333333, 24.5, 452.333333 ],
					"source" : [ "obj-28", 0 ]
				}

			}
, 			{
				"patchline" : 				{
					"destination" : [ "obj-4", 0 ],
					"midpoints" : [ 624.5, 416.75, 608.75, 416.75, 608.75, 452.333333, 24.5, 452.333333 ],
					"source" : [ "obj-34", 0 ]
				}

			}
, 			{
				"patchline" : 				{
					"destination" : [ "obj-4", 0 ],
					"midpoints" : [ 624.5, 444.0, 624.75, 444.0, 624.75, 452.0, 24.5, 452.0 ],
					"source" : [ "obj-36", 0 ]
				}

			}
, 			{
				"patchline" : 				{
					"destination" : [ "obj-31", 1 ],
					"source" : [ "obj-4", 1 ]
				}

			}
, 			{
				"patchline" : 				{
					"destination" : [ "obj-33", 1 ],
					"source" : [ "obj-4", 2 ]
				}

			}
, 			{
				"patchline" : 				{
					"destination" : [ "obj-35", 1 ],
					"source" : [ "obj-4", 3 ]
				}

			}
, 			{
				"patchline" : 				{
					"destination" : [ "obj-37", 1 ],
					"source" : [ "obj-4", 4 ]
				}

			}
, 			{
				"patchline" : 				{
					"destination" : [ "obj-43", 1 ],
					"source" : [ "obj-4", 5 ]
				}

			}
, 			{
				"patchline" : 				{
					"destination" : [ "obj-8", 1 ],
					"source" : [ "obj-4", 0 ]
				}

			}
, 			{
				"patchline" : 				{
					"destination" : [ "obj-4", 0 ],
					"midpoints" : [ 729.5, 444.0, 729.5, 444.0, 729.5, 452.5, 24.5, 452.5 ],
					"source" : [ "obj-42", 0 ]
				}

			}
, 			{
				"patchline" : 				{
					"destination" : [ "obj-4", 0 ],
					"midpoints" : [ 729.5, 415.75, 608.0, 415.75, 608.0, 452.0, 560.0, 452.0, 560.0, 452.75, 24.5, 452.75 ],
					"source" : [ "obj-44", 0 ]
				}

			}
, 			{
				"patchline" : 				{
					"destination" : [ "obj-4", 0 ],
					"midpoints" : [ 729.5, 385.25, 608.0, 385.25, 608.0, 452.0, 536.0, 452.0, 536.0, 452.0, 24.5, 452.0 ],
					"source" : [ "obj-45", 0 ]
				}

			}
, 			{
				"patchline" : 				{
					"destination" : [ "obj-4", 0 ],
					"midpoints" : [ 144.5, 99.0, 128.0, 99.0, 128.0, 165.0, 8.666667, 165.0, 8.666667, 314.0, 24.5, 314.0 ],
					"source" : [ "obj-46", 0 ]
				}

			}
, 			{
				"patchline" : 				{
					"destination" : [ "obj-4", 0 ],
					"midpoints" : [ 474.5, 452.666667, 24.5, 452.666667 ],
					"source" : [ "obj-47", 0 ]
				}

			}
, 			{
				"patchline" : 				{
					"destination" : [ "obj-4", 0 ],
					"midpoints" : [ 399.5, 452.666667, 24.5, 452.666667 ],
					"source" : [ "obj-5", 0 ]
				}

			}
, 			{
				"patchline" : 				{
					"destination" : [ "obj-4", 0 ],
					"midpoints" : [ 204.5, 99.0, 188.0, 99.0, 188.0, 165.666667, 8.333333, 165.666667, 8.333333, 314.0, 24.5, 314.0 ],
					"source" : [ "obj-51", 0 ]
				}

			}
, 			{
				"patchline" : 				{
					"destination" : [ "obj-4", 0 ],
					"midpoints" : [ 474.5, 415.25, 383.25, 415.25, 383.25, 452.333333, 24.5, 452.333333 ],
					"source" : [ "obj-52", 0 ]
				}

			}
, 			{
				"patchline" : 				{
					"destination" : [ "obj-4", 0 ],
					"midpoints" : [ 474.5, 385.0, 383.5, 385.0, 383.5, 452.666667, 24.5, 452.666667 ],
					"source" : [ "obj-53", 0 ]
				}

			}
, 			{
				"patchline" : 				{
					"destination" : [ "obj-4", 0 ],
					"midpoints" : [ 204.5, 129.0, 188.0, 129.0, 188.0, 165.0, 8.333334, 165.0, 8.333334, 314.333334, 24.5, 314.333334 ],
					"source" : [ "obj-56", 0 ]
				}

			}
, 			{
				"patchline" : 				{
					"destination" : [ "obj-4", 0 ],
					"midpoints" : [ 144.5, 129.0, 128.5, 129.0, 128.5, 165.0, 8.333334, 165.0, 8.333334, 314.333334, 24.5, 314.333334 ],
					"source" : [ "obj-57", 0 ]
				}

			}
, 			{
				"patchline" : 				{
					"destination" : [ "obj-4", 0 ],
					"midpoints" : [ 204.5, 165.0, 120.0, 165.0, 120.0, 165.0, 8.666667, 165.0, 8.666667, 314.333334, 24.5, 314.333334 ],
					"source" : [ "obj-59", 0 ]
				}

			}
, 			{
				"patchline" : 				{
					"destination" : [ "obj-4", 0 ],
					"midpoints" : [ 144.5, 159.0, 144.5, 159.0, 144.5, 165.0, 8.0, 165.0, 8.0, 314.666667, 24.5, 314.666667 ],
					"source" : [ "obj-60", 0 ]
				}

			}
, 			{
				"patchline" : 				{
					"destination" : [ "obj-4", 0 ],
					"midpoints" : [ 459.5, 165.999994, 8.999995, 165.999994, 8.999995, 314.33333, 24.5, 314.33333 ],
					"source" : [ "obj-61", 0 ]
				}

			}
, 			{
				"patchline" : 				{
					"destination" : [ "obj-4", 0 ],
					"midpoints" : [ 399.5, 165.999994, 8.999995, 165.999994, 8.999995, 314.33333, 24.5, 314.33333 ],
					"source" : [ "obj-62", 0 ]
				}

			}
, 			{
				"patchline" : 				{
					"destination" : [ "obj-4", 0 ],
					"midpoints" : [ 459.5, 129.0, 447.0, 129.0, 447.0, 165.66666, 8.999995, 165.66666, 8.999995, 314.33333, 24.5, 314.33333 ],
					"source" : [ "obj-63", 0 ]
				}

			}
, 			{
				"patchline" : 				{
					"destination" : [ "obj-4", 0 ],
					"midpoints" : [ 399.5, 129.0, 387.0, 129.0, 387.0, 166.0, 8.333334, 166.0, 8.333334, 314.999996, 24.5, 314.999996 ],
					"source" : [ "obj-64", 0 ]
				}

			}
, 			{
				"patchline" : 				{
					"destination" : [ "obj-4", 0 ],
					"midpoints" : [ 459.5, 99.0, 447.0, 99.0, 447.0, 165.66666, 8.666662, 165.66666, 8.666662, 314.33333, 24.5, 314.33333 ],
					"source" : [ "obj-65", 0 ]
				}

			}
, 			{
				"patchline" : 				{
					"destination" : [ "obj-4", 0 ],
					"midpoints" : [ 399.5, 99.0, 387.0, 99.0, 387.0, 165.0, 8.666667, 165.0, 8.666667, 314.999996, 24.5, 314.999996 ],
					"source" : [ "obj-69", 0 ]
				}

			}
, 			{
				"patchline" : 				{
					"destination" : [ "obj-4", 0 ],
					"midpoints" : [ 399.5, 416.5, 383.5, 416.5, 383.5, 452.666667, 24.5, 452.666667 ],
					"source" : [ "obj-7", 0 ]
				}

			}
, 			{
				"patchline" : 				{
					"destination" : [ "obj-4", 0 ],
					"midpoints" : [ 654.5, 69.0, 816.0, 69.0, 816.0, 314.333334, 24.5, 314.333334 ],
					"source" : [ "obj-71", 0 ]
				}

			}
, 			{
				"patchline" : 				{
					"destination" : [ "obj-4", 0 ],
					"midpoints" : [ 654.5, 99.0, 816.0, 99.0, 816.0, 314.0, 24.5, 314.0 ],
					"source" : [ "obj-73", 0 ]
				}

			}
, 			{
				"patchline" : 				{
					"destination" : [ "obj-4", 0 ],
					"midpoints" : [ 654.5, 129.0, 816.333343, 129.0, 816.333343, 314.0, 24.5, 314.0 ],
					"source" : [ "obj-77", 0 ]
				}

			}
, 			{
				"patchline" : 				{
					"destination" : [ "obj-4", 0 ],
					"midpoints" : [ 654.5, 159.0, 816.333343, 159.0, 816.333343, 314.333334, 24.5, 314.333334 ],
					"source" : [ "obj-80", 0 ]
				}

			}
, 			{
				"patchline" : 				{
					"destination" : [ "obj-4", 0 ],
					"midpoints" : [ 654.5, 189.0, 816.0, 189.0, 816.0, 314.0, 24.5, 314.0 ],
					"source" : [ "obj-82", 0 ]
				}

			}
, 			{
				"patchline" : 				{
					"destination" : [ "obj-4", 0 ],
					"midpoints" : [ 279.5, 314.666667, 24.5, 314.666667 ],
					"source" : [ "obj-96", 0 ]
				}

			}
, 			{
				"patchline" : 				{
					"destination" : [ "obj-4", 0 ],
					"midpoints" : [ 84.5, 314.333334, 24.5, 314.333334 ],
					"source" : [ "obj-97", 0 ]
				}

			}
 ],
		"dependency_cache" : [ 			{
				"name" : "y.setcalc.mxe64",
				"type" : "mx64"
			}
 ],
		"autosave" : 0,
		"styles" : [ 			{
				"name" : "data",
				"default" : 				{
					"accentcolor" : [ 0.8, 0.3, 0.8, 1.0 ]
				}
,
				"parentstyle" : "",
				"multi" : 0
			}
, 			{
				"name" : "external",
				"default" : 				{
					"accentcolor" : [ 1.0, 0.0, 0.0, 1.0 ]
				}
,
				"parentstyle" : "",
				"multi" : 0
			}
, 			{
				"name" : "js",
				"default" : 				{
					"accentcolor" : [ 1.0, 0.0, 0.0, 1.0 ]
				}
,
				"parentstyle" : "",
				"multi" : 0
			}
, 			{
				"name" : "msp",
				"default" : 				{
					"accentcolor" : [ 1.0, 0.8, 0.2, 1.0 ]
				}
,
				"parentstyle" : "",
				"multi" : 0
			}
, 			{
				"name" : "patcher",
				"default" : 				{
					"textcolor_inverse" : [ 1.0, 0.8, 0.2, 1.0 ],
					"patchlinecolor" : [ 0.5, 0.5, 0.5, 0.5 ],
					"bgcolor" : [ 0.0, 0.0, 0.0, 1.0 ],
					"accentcolor" : [ 0.5, 0.5, 0.5, 1.0 ],
					"clearcolor" : [ 0.2, 0.2, 0.2, 1.0 ],
					"textcolor" : [ 1.0, 0.8, 0.2, 1.0 ],
					"elementcolor" : [ 1.0, 0.8, 0.2, 1.0 ],
					"bgfillcolor" : 					{
						"type" : "color",
						"color1" : [ 0.0, 0.0, 0.0, 1.0 ],
						"color2" : [ 0.3, 0.3, 0.3, 1.0 ],
						"color" : [ 0.0, 0.0, 0.0, 1.0 ],
						"angle" : 270.0,
						"proportion" : 0.39
					}
,
					"selectioncolor" : [ 1.0, 0.8, 0.2, 1.0 ],
					"color" : [ 1.0, 0.0, 0.0, 1.0 ]
				}
,
				"parentstyle" : "",
				"multi" : 0
			}
, 			{
				"name" : "send",
				"default" : 				{
					"accentcolor" : [ 0.0, 0.5, 0.2, 1.0 ]
				}
,
				"parentstyle" : "",
				"multi" : 0
			}
, 			{
				"name" : "sub",
				"default" : 				{
					"accentcolor" : [ 0.8, 0.4, 0.1, 1.0 ]
				}
,
				"parentstyle" : "",
				"multi" : 0
			}
, 			{
				"name" : "value",
				"default" : 				{
					"accentcolor" : [ 0.0, 0.4, 0.8, 1.0 ]
				}
,
				"parentstyle" : "",
				"multi" : 0
			}
 ],
		"default_bgcolor" : [ 0.0, 0.0, 0.0, 1.0 ],
		"color" : [ 1.0, 0.0, 0.0, 1.0 ],
		"elementcolor" : [ 1.0, 0.8, 0.2, 1.0 ],
		"accentcolor" : [ 0.5, 0.5, 0.5, 1.0 ],
		"selectioncolor" : [ 1.0, 0.8, 0.2, 1.0 ],
		"textcolor" : [ 1.0, 0.8, 0.2, 1.0 ],
		"textcolor_inverse" : [ 1.0, 0.8, 0.2, 1.0 ],
		"patchlinecolor" : [ 0.5, 0.5, 0.5, 0.5 ],
		"clearcolor" : [ 0.2, 0.2, 0.2, 1.0 ],
		"bgfillcolor_type" : "color",
		"bgfillcolor_color1" : [ 0.0, 0.0, 0.0, 1.0 ],
		"bgfillcolor_color2" : [ 0.3, 0.3, 0.3, 1.0 ],
		"bgfillcolor_color" : [ 0.0, 0.0, 0.0, 1.0 ],
		"bgfillcolor_angle" : 270.0,
		"bgfillcolor_proportion" : 0.39
	}

}
